<?xml version="1.0" standalone="no"?>
<!DOCTYPE svg PUBLIC "-//W3C//DTD SVG 20010904//EN"
 "http://www.w3.org/TR/2001/REC-SVG-20010904/DTD/svg10.dtd">
<svg version="1.0" xmlns="http://www.w3.org/2000/svg"
 width="1200.000000pt" height="1200.000000pt" viewBox="0 0 1200.000000 1200.000000"
 preserveAspectRatio="xMidYMid meet">
<metadata>
Created by potrace 1.14, written by Peter Selinger 2001-2017
</metadata>
<g transform="translate(0.000000,1200.000000) scale(0.100000,-0.100000)"
fill="#000000" stroke="none">
<path d="M0 6000 l0 -6000 6000 0 6000 0 0 6000 0 6000 -6000 0 -6000 0 0
-6000z m3750 2625 l0 -375 -375 0 -375 0 0 -375 0 -375 -375 0 -375 0 0 -1500
0 -1500 375 0 375 0 0 -375 0 -375 -375 0 -375 0 0 375 0 375 -375 0 -375 0 0
375 0 375 -375 0 -375 0 0 750 0 750 375 0 375 0 0 375 0 375 375 0 375 0 0
375 0 375 375 0 375 0 0 375 0 375 375 0 375 0 0 -375z m5250 0 l0 -375 375 0
375 0 0 -375 0 -375 375 0 375 0 0 -375 0 -375 375 0 375 0 0 -750 0 -750
-375 0 -375 0 0 -375 0 -375 -375 0 -375 0 0 -375 0 -375 -375 0 -375 0 0 375
0 375 375 0 375 0 0 1500 0 1500 -375 0 -375 0 0 375 0 375 -375 0 -375 0 0
375 0 375 375 0 375 0 0 -375z m-2250 -1500 l0 -375 -375 0 -375 0 0 375 0
375 375 0 375 0 0 -375z"/>
</g>
</svg>
